<svg width="39" height="36" viewBox="0 0 39 36" fill="none" xmlns="http://www.w3.org/2000/svg">
<path d="M2.0789 0.0121706C1.43231 0.139431 0.853307 0.577444 0.469255 1.22985C0.0852038 1.88226 -0.0724345 2.69561 0.031019 3.49099C0.134472 4.28637 0.490543 4.99862 1.0209 5.47106C1.55126 5.94349 2.21246 6.1374 2.85904 6.01014H10.1729L10.6117 7.50963L12.6108 15.0071L14.61 22.5046C14.805 23.2843 15.6339 24.0041 16.2678 24.0041H33.3334C34.016 24.0041 34.7962 23.2843 34.9912 22.5046L38.9407 7.50963C39.1357 6.7299 38.8432 6.01014 38.1605 6.01014H16.5116L14.6587 1.6916C14.4614 1.19593 14.1567 0.776855 13.7781 0.480537C13.3996 0.18422 12.9619 0.0221483 12.5133 0.0121706L2.76152 0.0121706C2.61554 -0.00405686 2.46867 -0.00405686 2.32269 0.0121706C2.22526 0.00496653 2.12757 0.00496653 2.03014 0.0121706L2.0789 0.0121706ZM17.4867 30.002C16.1215 30.002 15.0488 31.3216 15.0488 33.001C15.0488 34.6804 16.1215 36 17.4867 36C18.852 36 19.9247 34.6804 19.9247 33.001C19.9247 31.3216 18.852 30.002 17.4867 30.002ZM32.1144 30.002C30.7492 30.002 29.6765 31.3216 29.6765 33.001C29.6765 34.6804 30.7492 36 32.1144 36C33.4797 36 34.5524 34.6804 34.5524 33.001C34.5524 31.3216 33.4797 30.002 32.1144 30.002Z" fill="#888888"/>
</svg>
