<svg width="204" height="35" viewBox="0 0 204 35" fill="none" xmlns="http://www.w3.org/2000/svg">
<path d="M21.7402 15.6309V20.2715H5.2832V15.6309H21.7402ZM6.89453 2.71875V34H0.986328V2.71875H6.89453ZM26.123 2.71875V34H20.2148V2.71875H26.123ZM30.6992 22.6133V22.1621C30.6992 20.4577 30.9427 18.8893 31.4297 17.457C31.9167 16.0104 32.6257 14.7572 33.5566 13.6973C34.4876 12.6374 35.6263 11.8138 36.9727 11.2266C38.319 10.625 39.8516 10.3242 41.5703 10.3242C43.3177 10.3242 44.8646 10.625 46.2109 11.2266C47.5716 11.8138 48.7174 12.6374 49.6484 13.6973C50.5794 14.7572 51.2884 16.0104 51.7754 17.457C52.2624 18.8893 52.5059 20.4577 52.5059 22.1621V22.6133C52.5059 24.3034 52.2624 25.8717 51.7754 27.3184C51.2884 28.7507 50.5794 30.0039 49.6484 31.0781C48.7174 32.138 47.5788 32.9616 46.2324 33.5488C44.8861 34.1361 43.3464 34.4297 41.6133 34.4297C39.8945 34.4297 38.3548 34.1361 36.9941 33.5488C35.6335 32.9616 34.4876 32.138 33.5566 31.0781C32.6257 30.0039 31.9167 28.7507 31.4297 27.3184C30.9427 25.8717 30.6992 24.3034 30.6992 22.6133ZM36.3711 22.1621V22.6133C36.3711 23.6302 36.4714 24.5827 36.6719 25.4707C36.8724 26.3587 37.1803 27.1393 37.5957 27.8125C38.0111 28.4857 38.5482 29.0156 39.207 29.4023C39.8802 29.7747 40.6823 29.9609 41.6133 29.9609C42.5299 29.9609 43.3177 29.7747 43.9766 29.4023C44.6354 29.0156 45.1725 28.4857 45.5879 27.8125C46.0176 27.1393 46.3327 26.3587 46.5332 25.4707C46.7337 24.5827 46.834 23.6302 46.834 22.6133V22.1621C46.834 21.1595 46.7337 20.2214 46.5332 19.3477C46.3327 18.4596 46.0176 17.679 45.5879 17.0059C45.1725 16.3184 44.6283 15.7812 43.9551 15.3945C43.2962 14.9935 42.5013 14.793 41.5703 14.793C40.6536 14.793 39.8659 14.9935 39.207 15.3945C38.5482 15.7812 38.0111 16.3184 37.5957 17.0059C37.1803 17.679 36.8724 18.4596 36.6719 19.3477C36.4714 20.2214 36.3711 21.1595 36.3711 22.1621ZM62.2812 15.5234V34H56.6094V10.7539H61.959L62.2812 15.5234ZM61.4434 21.5391H59.7031C59.7031 19.9206 59.8965 18.431 60.2832 17.0703C60.6842 15.7096 61.2715 14.528 62.0449 13.5254C62.8184 12.5085 63.7708 11.7207 64.9023 11.1621C66.0482 10.6035 67.373 10.3242 68.877 10.3242C69.9225 10.3242 70.8822 10.4818 71.7559 10.7969C72.6296 11.0977 73.3815 11.5775 74.0117 12.2363C74.6562 12.8809 75.1504 13.7259 75.4941 14.7715C75.8379 15.8027 76.0098 17.0417 76.0098 18.4883V34H70.3379V19.0684C70.3379 17.9798 70.1803 17.1276 69.8652 16.5117C69.5645 15.8958 69.1276 15.4661 68.5547 15.2227C67.9818 14.9648 67.2943 14.8359 66.4922 14.8359C65.6042 14.8359 64.8379 15.015 64.1934 15.373C63.5632 15.7168 63.0404 16.1966 62.625 16.8125C62.224 17.4284 61.9232 18.1374 61.7227 18.9395C61.5365 19.7415 61.4434 20.6081 61.4434 21.5391ZM75.5801 20.4863L73.2383 20.916C73.2526 19.4551 73.4531 18.0872 73.8398 16.8125C74.2266 15.5234 74.7923 14.3991 75.5371 13.4395C76.2962 12.4655 77.2344 11.7064 78.3516 11.1621C79.4831 10.6035 80.7865 10.3242 82.2617 10.3242C83.4076 10.3242 84.4388 10.4889 85.3555 10.8184C86.2865 11.1335 87.0814 11.6419 87.7402 12.3438C88.3991 13.0312 88.9004 13.9264 89.2441 15.0293C89.6022 16.1322 89.7812 17.4785 89.7812 19.0684V34H84.0664V19.0469C84.0664 17.9154 83.9089 17.0488 83.5938 16.4473C83.293 15.8457 82.8561 15.4303 82.2832 15.2012C81.7103 14.9577 81.0371 14.8359 80.2637 14.8359C79.4759 14.8359 78.7884 14.9863 78.2012 15.2871C77.6283 15.5736 77.1413 15.9746 76.7402 16.4902C76.3535 17.0059 76.0599 17.6074 75.8594 18.2949C75.6732 18.9681 75.5801 19.6986 75.5801 20.4863ZM105.314 34.4297C103.553 34.4297 101.97 34.1432 100.566 33.5703C99.1628 32.9974 97.9668 32.2025 96.9785 31.1855C96.0046 30.1543 95.2526 28.9583 94.7227 27.5977C94.207 26.2227 93.9492 24.7474 93.9492 23.1719V22.3125C93.9492 20.5221 94.207 18.8965 94.7227 17.4355C95.2383 15.9603 95.9688 14.6927 96.9141 13.6328C97.8594 12.5729 98.9909 11.7565 100.309 11.1836C101.626 10.6107 103.08 10.3242 104.67 10.3242C106.317 10.3242 107.771 10.6035 109.031 11.1621C110.292 11.7064 111.344 12.4798 112.189 13.4824C113.035 14.485 113.672 15.6882 114.102 17.0918C114.531 18.4811 114.746 20.0208 114.746 21.7109V24.0957H96.5273V20.1855H109.16V19.7559C109.132 18.8535 108.96 18.0299 108.645 17.2852C108.329 16.526 107.842 15.9245 107.184 15.4805C106.525 15.0221 105.673 14.793 104.627 14.793C103.782 14.793 103.044 14.9792 102.414 15.3516C101.798 15.7096 101.283 16.2253 100.867 16.8984C100.466 17.5573 100.165 18.3451 99.9648 19.2617C99.7643 20.1784 99.6641 21.1953 99.6641 22.3125V23.1719C99.6641 24.1458 99.793 25.0482 100.051 25.8789C100.323 26.7096 100.717 27.4329 101.232 28.0488C101.762 28.6504 102.393 29.123 103.123 29.4668C103.868 29.7962 104.713 29.9609 105.658 29.9609C106.847 29.9609 107.921 29.7318 108.881 29.2734C109.855 28.8008 110.7 28.1061 111.416 27.1895L114.273 30.1543C113.786 30.8704 113.128 31.5579 112.297 32.2168C111.48 32.8757 110.492 33.4128 109.332 33.8281C108.172 34.2292 106.833 34.4297 105.314 34.4297ZM125.982 34H120.268V8.60547C120.268 6.85807 120.604 5.38997 121.277 4.20117C121.951 2.99805 122.91 2.08854 124.156 1.47266C125.402 0.856771 126.87 0.548828 128.561 0.548828C129.119 0.548828 129.649 0.584635 130.15 0.65625C130.666 0.727865 131.174 0.828125 131.676 0.957031L131.568 5.27539C131.296 5.20378 130.995 5.15365 130.666 5.125C130.351 5.09635 130 5.08203 129.613 5.08203C128.84 5.08203 128.181 5.2181 127.637 5.49023C127.092 5.76237 126.677 6.16341 126.391 6.69336C126.118 7.20898 125.982 7.84635 125.982 8.60547V34ZM130.688 10.7539V14.8359H116.766V10.7539H130.688ZM133.18 22.6133V22.1621C133.18 20.4577 133.423 18.8893 133.91 17.457C134.397 16.0104 135.106 14.7572 136.037 13.6973C136.968 12.6374 138.107 11.8138 139.453 11.2266C140.799 10.625 142.332 10.3242 144.051 10.3242C145.798 10.3242 147.345 10.625 148.691 11.2266C150.052 11.8138 151.198 12.6374 152.129 13.6973C153.06 14.7572 153.769 16.0104 154.256 17.457C154.743 18.8893 154.986 20.4577 154.986 22.1621V22.6133C154.986 24.3034 154.743 25.8717 154.256 27.3184C153.769 28.7507 153.06 30.0039 152.129 31.0781C151.198 32.138 150.059 32.9616 148.713 33.5488C147.367 34.1361 145.827 34.4297 144.094 34.4297C142.375 34.4297 140.835 34.1361 139.475 33.5488C138.114 32.9616 136.968 32.138 136.037 31.0781C135.106 30.0039 134.397 28.7507 133.91 27.3184C133.423 25.8717 133.18 24.3034 133.18 22.6133ZM138.852 22.1621V22.6133C138.852 23.6302 138.952 24.5827 139.152 25.4707C139.353 26.3587 139.661 27.1393 140.076 27.8125C140.492 28.4857 141.029 29.0156 141.688 29.4023C142.361 29.7747 143.163 29.9609 144.094 29.9609C145.01 29.9609 145.798 29.7747 146.457 29.4023C147.116 29.0156 147.653 28.4857 148.068 27.8125C148.498 27.1393 148.813 26.3587 149.014 25.4707C149.214 24.5827 149.314 23.6302 149.314 22.6133V22.1621C149.314 21.1595 149.214 20.2214 149.014 19.3477C148.813 18.4596 148.498 17.679 148.068 17.0059C147.653 16.3184 147.109 15.7812 146.436 15.3945C145.777 14.9935 144.982 14.793 144.051 14.793C143.134 14.793 142.346 14.9935 141.688 15.3945C141.029 15.7812 140.492 16.3184 140.076 17.0059C139.661 17.679 139.353 18.4596 139.152 19.3477C138.952 20.2214 138.852 21.1595 138.852 22.1621ZM158.102 22.6133V22.1621C158.102 20.4577 158.345 18.8893 158.832 17.457C159.319 16.0104 160.028 14.7572 160.959 13.6973C161.89 12.6374 163.029 11.8138 164.375 11.2266C165.721 10.625 167.254 10.3242 168.973 10.3242C170.72 10.3242 172.267 10.625 173.613 11.2266C174.974 11.8138 176.12 12.6374 177.051 13.6973C177.982 14.7572 178.691 16.0104 179.178 17.457C179.665 18.8893 179.908 20.4577 179.908 22.1621V22.6133C179.908 24.3034 179.665 25.8717 179.178 27.3184C178.691 28.7507 177.982 30.0039 177.051 31.0781C176.12 32.138 174.981 32.9616 173.635 33.5488C172.288 34.1361 170.749 34.4297 169.016 34.4297C167.297 34.4297 165.757 34.1361 164.396 33.5488C163.036 32.9616 161.89 32.138 160.959 31.0781C160.028 30.0039 159.319 28.7507 158.832 27.3184C158.345 25.8717 158.102 24.3034 158.102 22.6133ZM163.773 22.1621V22.6133C163.773 23.6302 163.874 24.5827 164.074 25.4707C164.275 26.3587 164.583 27.1393 164.998 27.8125C165.413 28.4857 165.951 29.0156 166.609 29.4023C167.283 29.7747 168.085 29.9609 169.016 29.9609C169.932 29.9609 170.72 29.7747 171.379 29.4023C172.038 29.0156 172.575 28.4857 172.99 27.8125C173.42 27.1393 173.735 26.3587 173.936 25.4707C174.136 24.5827 174.236 23.6302 174.236 22.6133V22.1621C174.236 21.1595 174.136 20.2214 173.936 19.3477C173.735 18.4596 173.42 17.679 172.99 17.0059C172.575 16.3184 172.031 15.7812 171.357 15.3945C170.699 14.9935 169.904 14.793 168.973 14.793C168.056 14.793 167.268 14.9935 166.609 15.3945C165.951 15.7812 165.413 16.3184 164.998 17.0059C164.583 17.679 164.275 18.4596 164.074 19.3477C163.874 20.2214 163.773 21.1595 163.773 22.1621ZM197.977 29.0586V1H203.691V34H198.535L197.977 29.0586ZM183.045 22.6562V22.2051C183.045 20.429 183.245 18.8177 183.646 17.3711C184.062 15.9102 184.663 14.6569 185.451 13.6113C186.239 12.5658 187.191 11.7565 188.309 11.1836C189.44 10.6107 190.722 10.3242 192.154 10.3242C193.544 10.3242 194.754 10.6035 195.785 11.1621C196.831 11.7207 197.719 12.5156 198.449 13.5469C199.194 14.5781 199.788 15.8027 200.232 17.2207C200.676 18.6243 200.999 20.1712 201.199 21.8613V23.0859C200.999 24.7331 200.676 26.2441 200.232 27.6191C199.788 28.9941 199.194 30.1973 198.449 31.2285C197.719 32.2454 196.831 33.0332 195.785 33.5918C194.74 34.1504 193.515 34.4297 192.111 34.4297C190.693 34.4297 189.419 34.1361 188.287 33.5488C187.17 32.9616 186.217 32.138 185.43 31.0781C184.656 30.0182 184.062 28.7721 183.646 27.3398C183.245 25.9076 183.045 24.3464 183.045 22.6562ZM188.738 22.2051V22.6562C188.738 23.6589 188.824 24.597 188.996 25.4707C189.168 26.3444 189.447 27.1178 189.834 27.791C190.221 28.4499 190.715 28.9655 191.316 29.3379C191.932 29.7103 192.677 29.8965 193.551 29.8965C194.668 29.8965 195.585 29.653 196.301 29.166C197.031 28.6647 197.597 27.9844 197.998 27.125C198.399 26.2513 198.657 25.2702 198.771 24.1816V20.8086C198.714 19.9492 198.564 19.1543 198.32 18.4238C198.091 17.6934 197.762 17.0632 197.332 16.5332C196.917 16.0033 196.401 15.5879 195.785 15.2871C195.169 14.9863 194.439 14.8359 193.594 14.8359C192.72 14.8359 191.975 15.0293 191.359 15.416C190.743 15.7884 190.242 16.3112 189.855 16.9844C189.469 17.6576 189.182 18.4382 188.996 19.3262C188.824 20.2142 188.738 21.1738 188.738 22.2051Z" fill="black"/>
</svg>
